<svg width="242" height="80" viewBox="0 0 242 80" fill="none" xmlns="http://www.w3.org/2000/svg">
<mask id="mask0_2876_755" style="mask-type:luminance" maskUnits="userSpaceOnUse" x="1" y="0" width="240" height="80">
<path d="M240.73 0H1.26562V80H240.73V0Z" fill="white"/>
</mask>
<g mask="url(#mask0_2876_755)">
<path d="M228.981 24.5619C228.517 24.2991 228.532 23.7587 228.705 23.4364C228.877 23.1142 229.237 23.0696 229.528 23.2332C230.08 23.5504 229.848 24.1157 229.735 24.3139C229.626 24.5074 229.326 24.7602 228.981 24.5669V24.5619Z" fill="white"/>
<path d="M220.596 2.06564C218.479 2.24412 216.541 2.77957 215.792 3.19107C215.66 3.26544 215.565 3.35469 215.522 3.45384C215.502 3.49847 215.492 3.54309 215.492 3.5877C215.492 3.65712 215.517 3.79594 215.689 3.89014C217.08 4.68339 218.022 5.76917 218.569 7.20694C219.16 8.77362 219.363 10.1123 219.47 10.8311C219.495 11.0096 219.52 11.1484 219.54 11.2377C219.712 12.0409 219.929 12.3631 220.201 12.6011C220.319 12.7052 220.452 12.7498 220.576 12.73C220.684 12.7102 220.783 12.6408 220.841 12.5317C220.95 12.3383 220.906 12.021 220.841 11.5451C220.703 10.5287 220.466 8.8232 221.527 6.93922C222.528 5.15935 224.087 5.42212 224.771 5.81379C225.905 6.4583 226.896 8.21339 225.166 12.8887C225.058 13.1812 224.948 13.4737 224.836 13.7662C223.854 16.3592 222.843 19.0363 223.248 22.2392C223.598 25.5957 226.265 28.4712 227.063 28.9273C227.438 29.1405 228.923 28.5108 230.372 27.5242C231.772 26.5673 233.755 24.8767 235.225 22.264C236.097 20.7172 236.482 19.6958 236.826 18.7935C236.956 18.4513 237.078 18.1292 237.221 17.792C237.33 17.5392 237.448 17.2713 237.571 16.9937C238.104 15.794 238.711 14.4355 238.809 13.3101C238.888 12.3978 238.829 10.3899 238.134 9.99325C237.76 9.78007 237.398 9.98334 237.113 10.1519C236.946 10.2511 236.768 10.3502 236.679 10.3056C236.614 10.261 236.432 9.9536 236.274 9.68092C235.698 8.6943 234.628 6.85494 232.906 6.46327C232.779 6.43847 232.671 6.493 232.631 6.60209C232.591 6.71115 232.631 6.82024 232.759 6.88964C232.759 6.88964 232.838 6.93425 232.853 6.93922C233.011 7.01854 233.78 7.40525 234.312 8.26297C234.391 8.39187 234.454 8.53069 234.519 8.67942C234.529 8.69925 234.534 8.71414 234.544 8.73397C234.574 8.80834 234.604 8.8827 234.628 8.96202C234.914 9.8594 235.373 10.6626 235.954 10.9948C236.719 11.431 237.518 10.3304 237.842 10.5386C238.167 10.7469 238.167 12.3086 237.975 13.3646C237.74 14.6685 236.921 16.7012 236.634 17.6185C236.349 18.5357 235.84 20.2758 234.874 21.9913C232.744 25.779 229.273 27.9803 227.375 28.377C227.271 28.3968 227.223 28.3622 227.153 28.3027C226.064 27.4053 224.15 24.5 224.204 20.5932C224.264 16.0815 226.077 13.0622 226.467 9.9635C226.818 7.15737 225.999 5.44194 224.978 4.86187C224.174 4.40575 222.311 4.55449 221.191 6.54259C219.85 8.92732 220.432 10.6378 220.466 11.7781C220.466 11.8425 220.403 11.8475 220.394 11.793C220.384 11.7285 219.87 7.6581 218.801 5.99722C217.785 4.4107 216.921 3.96945 216.359 3.65215C216.349 3.65215 216.354 3.63729 216.359 3.63232C217.325 3.25057 223.011 1.32196 228.045 4.1876C229.697 5.12464 231.58 7.00367 233.622 9.82965C235.86 12.9234 237.038 16.8003 234.564 21.203C233.637 22.854 233.168 23.4192 232.774 23.8405C232.611 22.8738 232.152 21.6393 230.496 20.6923C229.175 19.9437 227.335 20.5138 226.152 19.8395C225.575 19.5123 225.313 18.8827 225.195 18.6497C225.151 18.5605 225.096 18.5753 225.101 18.6645C225.111 18.7935 225.141 19.8842 226.526 20.6725C228.204 21.6243 229.687 20.965 231.3 21.8822C231.985 22.2688 232.469 23.32 232.616 23.9992C232.522 24.0983 232.429 24.1925 232.329 24.3017C232.014 24.6487 232.394 25.0255 232.621 24.7925C232.676 24.738 232.828 24.5297 232.828 24.2025C233.173 23.9 233.735 23.3497 234.599 21.8227C236.21 18.957 236.526 16.5178 235.94 13.905C234.909 9.32395 231.792 5.36757 228.766 3.6472C228.602 3.553 228.439 3.46872 228.272 3.38444C226.082 2.22429 223.652 1.80784 220.609 2.06564H220.596Z" fill="white"/>
<path d="M109.797 35.6832C109.545 36.3325 109.358 37.5869 110.842 38.167C112.326 38.747 113.13 37.3639 113.248 37.0564C113.534 36.3177 113.578 34.9345 112.247 34.409C110.916 33.8834 110.014 35.113 109.797 35.6782V35.6832Z" fill="white"/>
<path d="M70.6795 35.6832C70.428 36.3325 70.2407 37.5869 71.7249 38.167C73.209 38.747 74.0126 37.3639 74.1309 37.0564C74.417 36.3177 74.4613 34.9345 73.1301 34.409C71.7988 33.8834 70.8964 35.113 70.6795 35.6782V35.6832Z" fill="white"/>
<path d="M92.1563 62.5071C92.1563 62.5071 85.5788 67.9854 82.7091 67.9854C79.5141 67.9854 83.2662 57.4451 89.2029 45.1248C97.4372 37.1029 124.334 7.46988 119.354 3.21603C119.137 3.0326 118.688 2.75 118.21 2.75C113.807 2.75 104.675 12.5963 96.3475 24.9959C91.2194 32.6359 86.3973 41.2229 83.1431 48.8531C74.2184 58.0053 65.0523 68.0053 60.7972 68.0053C56.542 68.0053 68.7404 46.9294 69.4949 44.9066C69.9042 43.8159 67.7938 42.2741 67.0937 42.9434C65.2447 44.7183 59.0664 57.6781 58.0212 61.2774C56.1278 67.7921 60.235 68.8283 61.6502 68.8283C66.0237 68.8283 74.3417 60.3306 81.5751 52.7748C79.948 57.1923 78.9915 61.1238 78.9915 64.1383C78.9915 66.7858 80.3276 68.7291 83.1381 68.7291C86.491 68.7291 92.181 63.7466 92.4176 63.5086C92.5607 63.3648 92.3979 62.5814 92.1514 62.4971L92.1563 62.5071ZM99.2959 26.1858C107.377 12.3682 115.212 3.80602 118.585 3.80602C120.887 3.80602 115 15.8338 91.1554 41.1684C93.6996 36.1213 96.5151 30.9404 99.2959 26.1858Z" fill="white"/>
<path d="M212.993 31.5221C212.849 31.5221 209.492 31.5221 205.015 31.5271C208.737 25.3398 211.71 20.5554 212.229 18.8598C212.464 18.0864 210.971 16.9858 210.818 17.2584C210.764 17.3526 206.898 24.1251 202.377 31.5321C193.363 31.5419 181.84 31.5519 181.55 31.5519C181.051 31.5519 180.681 32.8161 181.1 32.8161H201.593C201.09 33.6343 200.581 34.4573 200.069 35.2753C194.646 42.6426 172.995 67.8088 164.08 67.8088C160.535 67.8088 160.18 64.4324 161.827 59.9109C169.242 56.7081 179.425 47.6451 179.425 43.1781C179.425 42.0576 178.868 40.0893 176.131 40.0893C168.394 40.0893 160.249 51.2148 158.513 59.6679C154.712 61.2198 149.801 62.4443 146.655 62.6378C153.129 54.6953 154.899 42.2906 146.596 42.2906C141.759 42.2906 137.282 46.3561 135.161 48.6218C143.627 32.6228 153.011 15.3645 160.885 3.40615C161.215 2.90542 159.411 1.11563 159.189 1.69074C159.189 1.69074 154.633 9.37045 148.662 19.5738C140.161 31.5916 109.99 68.0071 100.055 68.0071C95.9181 68.0071 107.998 46.9313 108.753 44.9084C109.162 43.8176 107.052 42.2758 106.351 42.9451C104.503 44.7199 98.3242 57.6798 97.279 61.2793C95.3856 67.7939 99.4928 68.8301 100.908 68.8301C111.889 68.8301 135.497 37.5311 143.203 28.9243C134.422 44.0408 124.718 61.0264 121.75 67.3328C121.533 67.7939 124.087 69.6431 124.408 69.0383C126.937 64.2489 129.723 58.9243 132.657 53.3616C134.284 50.8974 141.65 43.2276 147.414 43.2276C153.178 43.2276 148.893 55.8058 141.276 62.7269C140.408 62.7269 139.456 62.7219 138.391 62.7171C130.684 62.7021 127.864 64.6506 127.864 65.8454C127.864 67.0403 130.684 69.1226 134.944 69.1226C139.205 69.1226 142.819 66.8718 145.753 63.6788C149.362 63.4013 152.512 63.0343 158.272 61.1701C157.759 65.6174 159.317 68.9986 164.085 68.9986C174.257 68.9986 195.281 43.1136 195.281 43.1136L196.801 40.6694C188.699 54.5316 182.743 68.8896 190.968 68.8896C201.815 68.8896 210.024 53.5449 210.087 53.1781C210.147 52.8063 209.763 52.0576 209.615 52.3154C206.834 57.0601 198.412 67.8434 191.031 67.8434C187.49 67.8434 189.745 59.6283 194.764 49.7126C197.747 43.8226 201.198 37.9029 204.25 32.8113H212.13C212.834 32.8113 213.525 31.5173 212.998 31.5173L212.993 31.5221ZM131.685 67.1791C125.044 67.1791 130.995 63.5896 138.327 63.5896C139.017 63.5896 139.658 63.5946 140.265 63.6044C137.617 65.7561 134.663 67.1791 131.685 67.1791ZM176.426 41.5371C183.201 41.5371 170.022 54.8043 162.591 58.0468C163.424 56.1974 164.529 54.2193 165.84 52.2461C168.646 48.0219 172.921 41.5371 176.431 41.5371H176.426Z" fill="white"/>
<path d="M239.224 46.2334C239.105 46.4119 239.746 47.0961 239.859 46.9176C241.432 44.4784 241.009 39.7734 237.35 39.7734C231.818 39.7734 230.92 48.6183 230.59 53.2291C230.235 58.1571 228.505 68.3901 221.823 68.3901C216.291 68.3901 219.294 60.8591 219.911 60.0064C220.235 59.5553 219.339 59.0198 219.146 59.2776C217.317 61.7566 215.571 68.9008 221.913 68.9008C229.397 68.9008 233.022 63.3976 233.524 52.2623C233.884 44.3494 236.118 41.0574 238.46 41.0574C240.925 41.0574 239.879 45.2518 239.224 46.2334Z" fill="white"/>
<path d="M61.9963 73.7222C57.0262 78.338 51.5285 78.2685 46.9626 78.0255C39.8921 77.6488 35.2523 74.0147 29.8088 70.3805C25.4452 67.4653 21.2196 64.6692 17.1912 63.4643C23.6948 58.6353 29.5179 50.5243 34.7347 41.5803C57.0017 29.5873 77.6759 0.717702 64.4075 0.00872854C57.4306 -0.36311 45.0594 11.1738 36.4703 29.1708C34.9317 32.3885 32.5454 37.2522 29.863 42.2745C25.1246 44.4212 20.4406 45.626 16.1508 45.393C6.21053 44.8625 4.78556 38.7345 4.99265 34.7683C5.33286 28.3132 11.2941 23.2115 11.4075 22.9785C11.5456 22.7008 11.4864 22.2447 10.8947 22.6662C10.8947 22.6662 4.49959 27.2025 4.11007 34.5203C3.76492 41.0202 9.0654 46.0573 16.2001 46.439C20.2039 46.6523 24.5428 45.7152 28.9509 43.97C25.0654 51.1143 20.7166 58.2537 17.487 61.1738C16.7524 61.8382 15.9832 62.448 15.1844 63.0033C14.7456 62.9338 14.3067 62.8843 13.8679 62.8595C3.07955 62.2795 -2.26532 67.733 3.80435 68.0553C8.27649 68.2933 12.4824 66.7613 16.4417 63.9948C20.7018 65.1005 24.6661 68.0405 28.8425 71.2482C34.0098 75.2145 38.7925 79.5278 46.8986 79.9592C54.339 80.3558 58.4759 77.7877 62.3071 74.2427C62.7014 73.8758 62.3071 73.4247 61.9865 73.7222H61.9963ZM64.9351 1.11929C74.3033 1.62003 56.0696 27.1432 36.0264 39.3147C37.6783 36.3845 39.2659 33.39 40.7944 30.4103C48.9202 14.5799 58.6434 0.782155 64.9351 1.11929ZM2.46321 67.2025C0.486001 67.0985 4.60806 63.0677 13.6312 63.5487C13.8531 63.5585 14.0701 63.5783 14.2919 63.6032C10.3178 66.1367 5.87032 67.386 2.46321 67.2025Z" fill="white"/>
</g>
</svg>
