<svg width="911" height="183" viewBox="0 0 911 183" fill="none" xmlns="http://www.w3.org/2000/svg">
<path d="M83.0834 93.4258C83.0834 127.586 66.7351 142.349 43.5547 142.349C20.3743 142.349 25.0104 140.519 18.7883 138.201V182.731H0V46.455H16.3483L18.4223 53.0431C24.4004 48.7731 31.7205 44.625 43.5547 44.625C66.7351 44.625 83.0834 59.2653 83.0834 93.5478V93.4258ZM64.2951 93.4258C64.2951 70.8554 55.9989 61.4613 42.7007 61.4613C29.4025 61.4613 25.3764 64.2673 18.7883 67.6834V121.12C25.3764 123.56 33.6726 125.39 42.7007 125.39C55.9989 125.39 64.2951 115.996 64.2951 93.4258Z" fill="white"/>
<path d="M176.293 111.989C176.293 119.31 177.635 123.702 182.881 123.702V140.416C172.877 140.416 166.533 138.22 162.995 134.072C157.016 138.22 149.696 142.368 134.202 142.368C111.022 142.368 99.1875 133.95 99.1875 112.233C99.1875 90.5171 111.022 82.2209 134.202 82.2209C157.382 82.2209 153.234 85.027 159.334 87.833C158.968 68.8007 153.844 62.4566 140.546 61.4806C130.542 60.7486 121.026 63.3106 111.754 67.0927L106.264 51.3544C113.34 47.9384 125.052 44.1563 140.424 44.6443C163.727 45.0103 176.171 55.5025 176.171 89.7851V112.111L176.293 111.989ZM136.032 127.484C148.964 127.484 154.21 124.068 159.334 119.798V102.839C153.356 99.6672 146.89 96.8612 136.032 96.8612C125.174 96.8612 117.976 100.765 117.976 112.233C117.976 123.702 124.564 127.484 136.032 127.484Z" fill="white"/>
<path d="M283.641 93.4258C283.641 127.586 267.293 142.349 244.234 142.349C221.176 142.349 225.568 140.519 219.468 138.201V182.731H200.68V46.455H217.028L219.102 53.0431C225.08 48.7731 232.4 44.625 244.234 44.625C267.293 44.625 283.641 59.2653 283.641 93.5478V93.4258ZM264.853 93.4258C264.853 70.8554 256.557 61.4613 243.258 61.4613C229.96 61.4613 225.934 64.2673 219.346 67.6834V121.12C225.934 123.56 234.23 125.39 243.258 125.39C256.557 125.39 264.853 115.996 264.853 93.4258Z" fill="white"/>
<path d="M380.039 93.4354V99.2915H320.502C320.502 117.348 330.995 124.424 343.561 124.668C355.761 124.912 366.253 122.96 373.695 119.544L377.843 136.258C366.741 140.528 357.713 142.602 342.341 142.236C319.16 141.626 300.25 129.426 300.25 93.3135C300.25 57.2008 317.33 44.3906 340.511 44.3906C363.691 44.3906 380.527 57.2008 380.161 93.3135L380.039 93.4354ZM319.892 85.8713H361.007C360.031 69.157 352.955 61.2269 340.755 61.2269C328.554 61.2269 320.868 69.279 319.892 85.8713Z" fill="white"/>
<path d="M417.247 53.1621C422.494 48.4041 432.498 44.5 445.064 44.5V62.3123C433.962 61.9463 423.226 66.2164 417.491 71.3405V140.272H398.703V46.33H415.051L417.247 53.0401V53.1621Z" fill="white"/>
<path d="M528.151 118.202L533.641 135.282C524.246 140.04 514.242 142.236 499.968 142.236C476.788 142.236 458.609 127.596 458.609 93.3135C458.609 59.0309 476.788 44.3906 499.968 44.3906C523.148 44.3906 524.246 46.4647 533.641 51.1007L528.151 68.181C520.098 63.911 509.728 62.2029 499.968 63.0569C487.158 64.033 477.398 72.3291 477.398 93.1914C477.398 114.054 487.158 122.35 499.968 123.326C509.728 124.302 520.098 122.594 528.151 118.08V118.202Z" fill="white"/>
<path d="M629.528 90.6475V140.424H610.74V90.6475C610.74 68.0771 602.443 63.4411 589.145 63.4411C575.847 63.4411 574.139 65.8811 569.015 69.2972V140.546H550.227V0H569.015V51.1189C574.627 47.7028 582.313 44.7748 592.927 44.7748C616.962 44.7748 629.528 56.609 629.528 90.7695V90.6475Z" fill="white"/>
<path d="M723.59 111.989C723.59 119.31 724.932 123.702 730.178 123.702V140.416C720.174 140.416 713.829 138.22 710.291 134.072C704.313 138.22 696.993 142.368 681.499 142.368C658.441 142.368 646.484 133.95 646.484 112.233C646.484 90.5171 658.319 82.2209 681.499 82.2209C704.679 82.2209 700.531 85.027 706.753 87.833C706.387 68.8007 701.263 62.4566 687.965 61.4806C677.961 60.7486 668.445 63.3106 659.173 67.0927L653.682 51.3544C660.881 47.9384 672.471 44.1563 687.843 44.6443C711.145 45.0103 723.59 55.5025 723.59 89.7851V112.111V111.989ZM683.329 127.484C696.261 127.484 701.507 124.068 706.631 119.798V102.839C700.653 99.6672 694.187 96.8612 683.329 96.8612C672.471 96.8612 665.273 100.765 665.273 112.233C665.273 123.702 671.861 127.484 683.329 127.484Z" fill="white"/>
<path d="M806.803 67.086C801.313 65.012 793.505 62.5719 786.551 61.4739C775.693 60.3759 767.763 62.2059 766.421 70.1361C765.445 74.2841 769.471 77.7002 774.717 79.8962C782.647 84.0443 794.847 86.6063 804.241 93.0725C810.951 97.5865 815.343 105.151 815.099 115.033C814.855 135.529 797.043 142.849 779.597 142.483C763.981 142.117 753.244 136.627 746.656 133.699L752.268 116.985C759.223 120.035 765.201 122.963 774.839 124.305C781.793 125.281 789.357 124.549 793.505 119.425C797.409 114.301 795.579 107.347 789.723 104.053C779.231 98.8065 767.031 96.3665 757.392 88.6804C749.462 82.0923 745.192 71.7221 749.706 60.2539C754.83 47.6877 769.959 43.5396 786.551 44.6376C797.287 45.3697 806.071 48.4197 811.561 50.9818L806.803 67.208V67.086Z" fill="white"/>
<path d="M910.875 93.4354V99.2915H851.338C851.338 117.348 861.83 124.424 874.519 124.668C886.719 124.912 897.211 122.96 904.531 119.544L908.679 136.258C897.577 140.528 888.549 142.602 873.177 142.236C849.996 141.626 831.086 129.426 831.086 93.3135C831.086 57.2008 848.166 44.3906 871.347 44.3906C894.527 44.3906 911.363 57.2008 910.997 93.3135L910.875 93.4354ZM850.728 85.8713H891.965C890.989 69.157 883.913 61.2269 871.713 61.2269C859.512 61.2269 851.826 69.279 850.85 85.8713H850.728Z" fill="white"/>
</svg>
