<?xml version="1.0" encoding="UTF-8"?>
<svg version="1.1" xmlns="http://www.w3.org/2000/svg" width="214" height="228">
<path d="M0 0 C70.62 0 141.24 0 214 0 C214 75.24 214 150.48 214 228 C143.38 228 72.76 228 0 228 C0 152.76 0 77.52 0 0 Z " fill="#991F21" transform="translate(0,0)"/>
<path d="M0 0 C0.85078125 -0.00773437 1.7015625 -0.01546875 2.578125 -0.0234375 C8.06806306 -0.0065972 12.72895725 0.71539262 18 2.25 C19.36898437 2.60578125 19.36898437 2.60578125 20.765625 2.96875 C28.89565037 5.52536175 35.12538629 10.1199683 41 16.25 C41.495 18.23 41.495 18.23 42 20.25 C38.04 23.88 34.08 27.51 30 31.25 C28.9275 30.38375 27.855 29.5175 26.75 28.625 C16.44621794 20.87876384 6.80418779 17.31820214 -6 18.25 C-13.05744335 19.85538593 -18.8395866 22.14806034 -23 28.25 C-25.4426988 33.36803559 -25.21358761 37.83398918 -24 43.25 C-20.91759658 50.1854077 -14.92700424 53.10080845 -8.2734375 56.03515625 C-4.6725507 57.37152355 -1.04557978 58.31693095 2.6875 59.1875 C14.78881784 62.0296736 26.87053324 65.37467257 36 74.25 C36.57105469 74.79398437 37.14210938 75.33796875 37.73046875 75.8984375 C45.04278984 83.58991598 47.33664199 93.64535655 47.2109375 103.953125 C46.61831883 113.21553527 44.28653115 120.3846578 38 127.25 C36.8553125 128.549375 36.8553125 128.549375 35.6875 129.875 C29.81248646 135.06687243 23.56618346 139.09027656 16 141.25 C14.93072266 141.55744141 14.93072266 141.55744141 13.83984375 141.87109375 C-1.81090332 145.65967192 -18.75898476 143.61282856 -33 136.25 C-40.00085581 131.87914484 -46.74340353 126.6663613 -52 120.25 C-52 118.25 -52 118.25 -50.3203125 116.5234375 C-49.59585938 115.89695312 -48.87140625 115.27046875 -48.125 114.625 C-47.40570313 113.99335938 -46.68640625 113.36171875 -45.9453125 112.7109375 C-44 111.25 -44 111.25 -42 111.25 C-42 110.59 -42 109.93 -42 109.25 C-39.525 108.26 -39.525 108.26 -37 107.25 C-36.62230469 107.67410156 -36.24460937 108.09820312 -35.85546875 108.53515625 C-26.79140709 118.19358261 -16.32825996 124.14396185 -3.00219727 124.59887695 C6.32925187 124.71347182 13.56453845 123.33355945 21 117.25 C25.35516883 111.29468927 26.75302501 105.56118831 26 98.25 C23.82578689 91.49849613 20.45440908 87.38133511 14.1875 84.125 C8.34764218 81.31091073 2.41996448 79.21859399 -3.9362793 77.97094727 C-10.97282473 76.57828898 -17.27231978 74.53740808 -23.6875 71.3125 C-24.33396484 70.98870361 -24.98042969 70.66490723 -25.64648438 70.33129883 C-31.56821233 67.20843994 -36.55317119 63.51008506 -40.25 57.8125 C-40.72953125 57.09191406 -41.2090625 56.37132812 -41.703125 55.62890625 C-46.37565589 47.05790831 -46.84268911 35.55176077 -44.46533203 26.13134766 C-41.03145791 16.25865141 -34.63945126 9.58479246 -25.41796875 4.953125 C-16.9795347 1.37554006 -9.10629343 -0.08278449 0 0 Z " fill="#FCF8F6" transform="translate(74,41.75)"/>
<path d="M0 0 C6.91567197 5.83891406 10.52317572 11.80911747 11.34375 20.7421875 C11.85054845 30.75293352 10.1741142 37.18371439 3.5625 44.8125 C-5.05308284 52.16726584 -11.84580915 53.82230658 -23 53 C-30.06129484 51.81774363 -35.37150869 48.43520003 -40 43 C-45.21759262 34.46800611 -47.4216567 26.52996135 -45.5390625 16.55859375 C-43.11752736 8.36810726 -38.46073556 2.15576741 -30.99609375 -2.03515625 C-20.37451483 -7.16926582 -9.99997192 -5.91470141 0 0 Z " fill="#FAF4F2" transform="translate(176,131)"/>
<path d="M0 0 C18.81 0 37.62 0 57 0 C57 4.29 57 8.58 57 13 C50.07 13 43.14 13 36 13 C36 30.49 36 47.98 36 66 C31.05 66 26.1 66 21 66 C21 48.51 21 31.02 21 13 C14.07 13 7.14 13 0 13 C0 8.71 0 4.42 0 0 Z " fill="#FDFAF7" transform="translate(130,45)"/>
<path d="M0 0 C70.62 0 141.24 0 214 0 C214 2.31 214 4.62 214 7 C143.38 7 72.76 7 0 7 C0 4.69 0 2.38 0 0 Z " fill="#FBF5F4" transform="translate(0,0)"/>
<path d="M0 0 C70.62 0 141.24 0 214 0 C214 1.98 214 3.96 214 6 C143.38 6 72.76 6 0 6 C0 4.02 0 2.04 0 0 Z " fill="#FDFCFB" transform="translate(0,222)"/>
<path d="M0 0 C70.62 0 141.24 0 214 0 C214 70.95 214 141.9 214 215 C143.38 215 72.76 215 0 215 C0 214.67 0 214.34 0 214 C70.29 214 140.58 214 213 214 C212.67 144.04 212.34 74.08 212 2 C142.7 2 73.4 2 2 2 C2 4.31 2 6.62 2 9 C1.01 9.495 1.01 9.495 0 10 C0 6.7 0 3.4 0 0 Z " fill="#A75652" transform="translate(0,7)"/>
<path d="M0 0 C4.05019096 2.68863741 6.50060993 5.36916081 7.9609375 10.09375 C8.8382674 17.08281625 8.6875395 22.77347144 4.36328125 28.53515625 C0.78049014 32.51714414 -2.16060224 33.31893766 -7.4140625 33.65625 C-12.3858606 33.50213766 -15.19393835 32.49209888 -18.6640625 28.921875 C-22.82242444 23.39314379 -23.57711912 18.21834084 -22.6171875 11.42578125 C-21.35939603 6.3521224 -18.44143833 2.79198035 -14.0390625 0.09375 C-9.39627586 -1.45384555 -4.58505859 -2.03780382 0 0 Z " fill="#972021" transform="translate(166.0390625,138.90625)"/>
<path d="M0 0 C0.33 0 0.66 0 1 0 C1 70.29 1 140.58 1 213 C-69.29 213 -139.58 213 -212 213 C-212 145.68 -212 78.36 -212 9 C-211.67 9 -211.34 9 -211 9 C-211 75.66 -211 142.32 -211 211 C-141.7 211 -72.4 211 -1 211 C-0.67 141.37 -0.34 71.74 0 0 Z " fill="#871F1E" transform="translate(212,8)"/>
<path d="M0 0 C18.81 0 37.62 0 57 0 C57 4.29 57 8.58 57 13 C56.67 13 56.34 13 56 13 C55.77213542 10.98177083 55.54427083 8.96354167 55.31640625 6.9453125 C55.08707039 4.92595684 55.08707039 4.92595684 54 3 C36.84 3 19.68 3 2 3 C1.67 6.3 1.34 9.6 1 13 C0.67 13 0.34 13 0 13 C0 8.71 0 4.42 0 0 Z " fill="#F7E1DC" transform="translate(130,45)"/>
<path d="M0 0 C0 0.66 0 1.32 0 2 C2.31 2 4.62 2 7 2 C7.495 2.99 7.495 2.99 8 4 C7.34 4.66 6.68 5.32 6 6 C5.09121094 5.566875 5.09121094 5.566875 4.1640625 5.125 C-4.35269649 1.35142063 -10.91882368 0.76665456 -19.8125 3.6875 C-24.19172497 5.44904478 -27.02729795 7.24040624 -30 11 C-30.43957031 11.53753906 -30.87914062 12.07507813 -31.33203125 12.62890625 C-34.41710657 16.60305227 -35.90000711 20.10003165 -37 25 C-37.33 25 -37.66 25 -38 25 C-38.33 26.98 -38.66 28.96 -39 31 C-39.33 31 -39.66 31 -40 31 C-40.34548714 24.66606918 -39.29342747 19.89738492 -37 14 C-36.34 14 -35.68 14 -35 14 C-34.67 12.68 -34.34 11.36 -34 10 C-33.34 10 -32.68 10 -32 10 C-32 7.69 -32 5.38 -32 3 C-23.13763276 -2.09379052 -9.98645216 -0.11405846 0 0 Z " fill="#8F2422" transform="translate(168,125)"/>
<path d="M0 0 C0.99 0 1.98 0 3 0 C5.84995757 7.12489391 5.84606085 13.20569956 2.91015625 20.18359375 C-0.14205012 26.27490688 -4.78543193 29.87965177 -11.171875 32.10546875 C-15.39883203 33.09319646 -19.12676473 33.22754265 -23.4375 33.125 C-24.16904297 33.11597656 -24.90058594 33.10695312 -25.65429688 33.09765625 C-27.43634298 33.07436153 -29.21821759 33.0385019 -31 33 C-31 32.67 -31 32.34 -31 32 C-30.01 31.97421875 -29.02 31.9484375 -28 31.921875 C-17.41569755 31.52164913 -17.41569755 31.52164913 -8 27 C-6.42930551 24.42240798 -6.42930551 24.42240798 -6 22 C-4.35 22 -2.7 22 -1 22 C-1 21.01 -1 20.02 -1 19 C-0.34 18.67 0.32 18.34 1 18 C3.02929235 11.91212295 2.42351711 5.90732295 0 0 Z " fill="#8F373B" transform="translate(96,134)"/>
<path d="M0 0 C1.16015625 -0.03867188 1.16015625 -0.03867188 2.34375 -0.078125 C4.98830838 0.3243078 5.83240802 1.21895849 7.5 3.25 C4.44447652 4.26850783 3.16324373 4.23604172 0.0625 3.8125 C-2.87808292 3.41942716 -5.5041851 3.25 -8.5 3.25 C-8.17 4.24 -7.84 5.23 -7.5 6.25 C-7.95375 6.641875 -8.4075 7.03375 -8.875 7.4375 C-10.77642919 9.55832487 -11.56204028 11.58042235 -12.5 14.25 C-13.16 14.25 -13.82 14.25 -14.5 14.25 C-14.02060632 18.96403788 -13.53165952 22.91579301 -11.5 27.25 C-12.16 27.58 -12.82 27.91 -13.5 28.25 C-16.42061356 21.9414747 -17.19061947 17.0695934 -15.5 10.25 C-11.93308557 3.48516229 -7.70316581 0.15406332 0 0 Z " fill="#8B2E34" transform="translate(159.5,137.75)"/>
<path d="M0 0 C2 3 2 3 1.7578125 5.69921875 C1.44457031 7.17841797 1.44457031 7.17841797 1.125 8.6875 C0.81949219 10.17830078 0.81949219 10.17830078 0.5078125 11.69921875 C0.34023438 12.45847656 0.17265625 13.21773437 0 14 C0.66 14 1.32 14 2 14 C2.33 15.32 2.66 16.64 3 18 C3.66 18 4.32 18 5 18 C5.33 18.66 5.66 19.32 6 20 C6.99 20.33 7.98 20.66 9 21 C10.02019573 21.9793879 11.02149805 22.97895449 12 24 C12.66 24.33 13.32 24.66 14 25 C14 25.66 14 26.32 14 27 C8.02798411 25.65629643 4.06974035 22.41431791 0 18 C-2.68612025 13.05753875 -2.01084067 8.36051872 -1 3 C-0.67 2.01 -0.34 1.02 0 0 Z " fill="#8E3D45" transform="translate(50,70)"/>
<path d="M0 0 C1.24716797 0.01353516 2.49433594 0.02707031 3.77929688 0.04101562 C6.83248967 0.0761098 9.8847599 0.12527733 12.9375 0.1875 C12.9375 1.1775 12.9375 2.1675 12.9375 3.1875 C11.9333606 3.17178955 11.9333606 3.17178955 10.90893555 3.15576172 C7.81433007 3.11365099 4.71978522 3.08800147 1.625 3.0625 C0.0462207 3.03736328 0.0462207 3.03736328 -1.56445312 3.01171875 C-8.62031803 2.96829804 -15.17237473 3.6651333 -22.0625 5.1875 C-22.3925 4.5275 -22.7225 3.8675 -23.0625 3.1875 C-15.25347466 -0.02203469 -8.37805324 -0.17370764 0 0 Z " fill="#873232" transform="translate(75.0625,39.8125)"/>
<path d="M0 0 C-0.66 0 -1.32 0 -2 0 C-2 0.66 -2 1.32 -2 2 C-19.95275591 5.02362205 -19.95275591 5.02362205 -24 3 C-24 2.34 -24 1.68 -24 1 C-20.75118032 0.63439591 -17.50085236 0.28452625 -14.25 -0.0625 C-12.86941406 -0.2181543 -12.86941406 -0.2181543 -11.4609375 -0.37695312 C-10.12675781 -0.51713867 -10.12675781 -0.51713867 -8.765625 -0.66015625 C-7.54020996 -0.79369507 -7.54020996 -0.79369507 -6.29003906 -0.92993164 C-3.98031789 -1.00060221 -2.1994609 -0.67352969 0 0 Z " fill="#8E3639" transform="translate(90,184)"/>
<path d="M0 0 C0 0.66 0 1.32 0 2 C2.31 2 4.62 2 7 2 C7.33 2.66 7.66 3.32 8 4 C7.34 4.66 6.68 5.32 6 6 C5.39414063 5.71125 4.78828125 5.4225 4.1640625 5.125 C-5.97039576 0.63465542 -13.69412445 1.31619768 -24 5 C-24 4.34 -24 3.68 -24 3 C-16.19436658 -0.90281671 -8.51207047 -0.27891493 0 0 Z " fill="#882D32" transform="translate(168,125)"/>
<path d="M0 0 C3.79049707 1.42749981 7.27122456 3.16236542 10.8125 5.125 C12.27623047 5.93324219 12.27623047 5.93324219 13.76953125 6.7578125 C14.50558594 7.16773437 15.24164063 7.57765625 16 8 C16 8.66 16 9.32 16 10 C14.39272673 9.77082032 12.78912584 9.51579198 11.1875 9.25 C10.29417969 9.11078125 9.40085937 8.9715625 8.48046875 8.828125 C5.49427342 7.831159 4.61619656 6.6417565 3 4 C2.01 4.33 1.02 4.66 0 5 C0 3.35 0 1.7 0 0 Z " fill="#8C2D33" transform="translate(40,107)"/>
<path d="M0 0 C0.66 0 1.32 0 2 0 C3.26171875 1.609375 3.26171875 1.609375 4.6875 3.75 C7.6678339 7.90039091 10.42440763 9.80371566 15 12 C11.98968256 12.93423645 11.13349732 13.04449911 8 12 C8 11.34 8 10.68 8 10 C7.01 10.33 6.02 10.66 5 11 C4.67 9.35 4.34 7.7 4 6 C3.01 6 2.02 6 1 6 C0.67 4.02 0.34 2.04 0 0 Z " fill="#8B2F35" transform="translate(132,169)"/>
<path d="M0 0 C7.62951555 -0.34855655 13.92444501 -0.0017506 21 3 C20.67 3.66 20.34 4.32 20 5 C19.13375 4.690625 18.2675 4.38125 17.375 4.0625 C11.42986735 2.32696438 5.14860618 2.32405969 -1 2 C-0.67 1.34 -0.34 0.68 0 0 Z " fill="#934B4F" transform="translate(68,59)"/>
<path d="M0 0 C0.99 0.33 1.98 0.66 3 1 C-2 11 -2 11 -3.125 13.125 C-4.31707562 15.67944776 -4.62122537 18.22231934 -5 21 C-5.33 21 -5.66 21 -6 21 C-6.34548714 14.66606918 -5.29342747 9.89738492 -3 4 C-2.34 4 -1.68 4 -1 4 C-0.67 2.68 -0.34 1.36 0 0 Z " fill="#8D2E36" transform="translate(134,135)"/>
<path d="M0 0 C2.475 0.99 2.475 0.99 5 2 C4.01 2.66 3.02 3.32 2 4 C-1.2123521 6.40926407 -3.74065668 8.67044142 -6 12 C-6 9.36 -6 6.72 -6 4 C-5.34 3.67 -4.68 3.34 -4 3 C-3.01 3.33 -2.02 3.66 -1 4 C-0.67 2.68 -0.34 1.36 0 0 Z " fill="#F6E7E4" transform="translate(150,136)"/>
<path d="M0 0 C1.48046875 1.2578125 1.48046875 1.2578125 3 3 C3.38997934 7.83574377 3.4203415 11.66886258 1 16 C0.01 16.66 -0.98 17.32 -2 18 C-1.84660156 17.48953125 -1.69320312 16.9790625 -1.53515625 16.453125 C-0.83094597 13.2250662 -0.65111796 10.04581999 -0.4375 6.75 C-0.35371094 5.48671875 -0.26992187 4.2234375 -0.18359375 2.921875 C-0.12300781 1.95765625 -0.06242188 0.9934375 0 0 Z " fill="#953D43" transform="translate(187,150)"/>
<path d="M0 0 C1.98 0.66 3.96 1.32 6 2 C6 2.99 6 3.98 6 5 C6.66 5 7.32 5 8 5 C8.625 8.375 8.625 8.375 9 12 C8.34 12.66 7.68 13.32 7 14 C6.74605469 13.40832031 6.49210938 12.81664062 6.23046875 12.20703125 C4.38218665 7.96359706 2.51681595 3.90106471 0 0 Z " fill="#883836" transform="translate(179,134)"/>
<path d="M0 0 C0.33 0.66 0.66 1.32 1 2 C1.66 2 2.32 2 3 2 C3.33 2.66 3.66 3.32 4 4 C4.99 4.33 5.98 4.66 7 5 C8.02019573 5.9793879 9.02149805 6.97895449 10 8 C10.66 8.33 11.32 8.66 12 9 C12 9.66 12 10.32 12 11 C6.79993466 9.63807813 3.74943029 7.74943029 0 4 C0 2.68 0 1.36 0 0 Z " fill="#843231" transform="translate(52,86)"/>
<path d="M0 0 C0 0.99 0 1.98 0 3 C-1.6796875 4.60546875 -1.6796875 4.60546875 -3.875 6.1875 C-4.59429687 6.71730469 -5.31359375 7.24710938 -6.0546875 7.79296875 C-8 9 -8 9 -10 9 C-10.33 8.01 -10.66 7.02 -11 6 C-7.37 4.02 -3.74 2.04 0 0 Z " fill="#8F2F3A" transform="translate(105,175)"/>
<path d="M0 0 C0.99 0 1.98 0 3 0 C4.97346879 4.93367197 5.34916177 8.76257341 5 14 C4.34 14.66 3.68 15.32 3 16 C2.86722656 15.09636719 2.73445313 14.19273437 2.59765625 13.26171875 C2.42105469 12.08222656 2.24445313 10.90273437 2.0625 9.6875 C1.88847656 8.51574219 1.71445313 7.34398437 1.53515625 6.13671875 C1.07906969 2.98358597 1.07906969 2.98358597 0 0 Z " fill="#874043" transform="translate(96,134)"/>
<path d="M0 0 C5.27315333 0.4452885 10.01770224 1.08373163 15 3 C15 3.66 15 4.32 15 5 C15.66 5 16.32 5 17 5 C16.67 5.66 16.34 6.32 16 7 C10.72 5.02 5.44 3.04 0 1 C0 0.67 0 0.34 0 0 Z " fill="#904548" transform="translate(85,103)"/>
<path d="M0 0 C0.99 0 1.98 0 3 0 C5 3 5 3 5 6 C5.99 6 6.98 6 8 6 C8.33 7.32 8.66 8.64 9 10 C4.82117329 7.43571997 1.87494471 4.98069267 -1 1 C-0.67 0.67 -0.34 0.34 0 0 Z " fill="#8E2D2E" transform="translate(39,149)"/>
<path d="M0 0 C0.33 0 0.66 0 1 0 C1.04898438 0.66386719 1.09796875 1.32773438 1.1484375 2.01171875 C1.71125812 8.7112236 1.71125812 8.7112236 4 15 C3.01 15.495 3.01 15.495 2 16 C-0.02208442 11.11329598 -1.51198891 7.37588358 -1 2 C-0.67 1.34 -0.34 0.68 0 0 Z " fill="#893F3F" transform="translate(144,150)"/>
<path d="M0 0 C0.66 0.33 1.32 0.66 2 1 C-2.75 5.875 -2.75 5.875 -5 7 C-5 6.34 -5 5.68 -5 5 C-5.66 5 -6.32 5 -7 5 C-7 5.66 -7 6.32 -7 7 C-8.32 7 -9.64 7 -11 7 C-11 6.34 -11 5.68 -11 5 C-10.45730469 4.80664062 -9.91460937 4.61328125 -9.35546875 4.4140625 C-8.64003906 4.15367187 -7.92460938 3.89328125 -7.1875 3.625 C-6.47980469 3.36976563 -5.77210937 3.11453125 -5.04296875 2.8515625 C-2.75226641 1.9734231 -2.75226641 1.9734231 0 0 Z " fill="#F8E3E2" transform="translate(92,161)"/>
<path d="M0 0 C5.28137429 0.51525603 8.57221156 2.25477117 13 5 C13 5.33 13 5.66 13 6 C7.77895216 6.63671315 5.32292214 5.23234994 1.3203125 2.19140625 C0.88460937 1.79824219 0.44890625 1.40507813 0 1 C0 0.67 0 0.34 0 0 Z " fill="#8C2D35" transform="translate(81,123)"/>
<path d="M0 0 C0.66 0 1.32 0 2 0 C1.34 5.61 0.68 11.22 0 17 C-0.33 17 -0.66 17 -1 17 C-1.02684679 14.35409986 -1.04676357 11.70846904 -1.0625 9.0625 C-1.07087891 8.30775391 -1.07925781 7.55300781 -1.08789062 6.77539062 C-1.09652441 4.85005687 -1.05224333 2.92464419 -1 1 C-0.67 0.67 -0.34 0.34 0 0 Z " fill="#7F2122" transform="translate(28,67)"/>
<path d="M0 0 C1.32 1.32 2.64 2.64 4 4 C2.63016497 7.16115776 2.0109362 7.9927092 -1 10 C-0.67 6.7 -0.34 3.4 0 0 Z " fill="#F2D4CC" transform="translate(112,56)"/>
<path d="M0 0 C-1.625 2 -1.625 2 -4 4 C-7.25 4.25 -7.25 4.25 -10 4 C-7.39928297 0.98864344 -3.94054294 -1.97027147 0 0 Z " fill="#F6D6DF" transform="translate(152,128)"/>
<path d="M0 0 C2.88250984 2.38120378 3.61038985 4.29870356 4 8 C3 9 3 9 0.4375 9.0625 C-0.366875 9.041875 -1.17125 9.02125 -2 9 C-1.505 7.88625 -1.505 7.88625 -1 6.75 C0.22782871 3.86116688 0.22782871 3.86116688 0 0 Z " fill="#8A2D2B" transform="translate(115,56)"/>
<path d="M0 0 C4.12751449 0.60698743 7.3321148 2.03810791 11 4 C11 4.66 11 5.32 11 6 C6.95743617 4.77782954 3.50711041 3.37245704 0 1 C0 0.67 0 0.34 0 0 Z " fill="#F5D9D7" transform="translate(47,110)"/>
<path d="M0 0 C0.66 0 1.32 0 2 0 C2.99 2.97 3.98 5.94 5 9 C4.01 9.495 4.01 9.495 3 10 C-0.00617269 6.99382731 0.40414684 4.17618402 0 0 Z " fill="#8E3138" transform="translate(28,89)"/>
<path d="M0 0 C3.26460973 1.80412643 4.88929795 2.83394693 7 6 C4.37886292 6 2.49064888 5.68707555 0 5 C0 3.35 0 1.7 0 0 Z " fill="#8A312F" transform="translate(96,67)"/>
<path d="M0 0 C0.66 0.33 1.32 0.66 2 1 C1.25 2.9375 1.25 2.9375 0 5 C-2.125 5.75 -2.125 5.75 -4 6 C-4 5.01 -4 4.02 -4 3 C-2 1.3125 -2 1.3125 0 0 Z " fill="#892527" transform="translate(56,65)"/>
<path d="M0 0 C0.66 0.33 1.32 0.66 2 1 C2 2.65 2 4.3 2 6 C0.02 6.99 0.02 6.99 -2 8 C-2.33 7.34 -2.66 6.68 -3 6 C-2.06553465 3.96855359 -1.06775224 1.96466413 0 0 Z " fill="#932E38" transform="translate(118,158)"/>
<path d="M0 0 C0.33 0.99 0.66 1.98 1 3 C1.66 3 2.32 3 3 3 C3.33 4.65 3.66 6.3 4 8 C3.67 8 3.34 8 3 8 C2.67 9.98 2.34 11.96 2 14 C1.67 14 1.34 14 1 14 C0.67 9.38 0.34 4.76 0 0 Z " fill="#7D1E23" transform="translate(187,146)"/>
<path d="M0 0 C0.33 0.99 0.66 1.98 1 3 C-1 5 -3 7 -5 9 C-5.66 8.67 -6.32 8.34 -7 8 C-6.21366078 6.85050412 -5.42073742 5.70551011 -4.625 4.5625 C-4.18414062 3.92441406 -3.74328125 3.28632813 -3.2890625 2.62890625 C-2 1 -2 1 0 0 Z " fill="#F3E1DE" transform="translate(141,132)"/>
<path d="M0 0 C3.77545388 1.09068668 6.47043472 1.9083091 9 5 C4.73350364 5 3.36683915 4.43160605 0 2 C0 1.34 0 0.68 0 0 Z " fill="#F9E2DB" transform="translate(168,128)"/>
<path d="M0 0 C1.60379341 -0.05416188 3.20811406 -0.09286638 4.8125 -0.125 C5.70582031 -0.14820312 6.59914063 -0.17140625 7.51953125 -0.1953125 C10 0 10 0 13 2 C12.67 2.33 12.34 2.66 12 3 C10.0390625 2.94921875 10.0390625 2.94921875 7.625 2.6875 C6.83351563 2.60886719 6.04203125 2.53023438 5.2265625 2.44921875 C3 2 3 2 0 0 Z " fill="#EDCDC8" transform="translate(59,116)"/>
<path d="M0 0 C3.3 0 6.6 0 10 0 C10 0.66 10 1.32 10 2 C5.94568308 3.15837626 3.78187881 2.83691257 0 1 C0 0.67 0 0.34 0 0 Z " fill="#8B2E2E" transform="translate(156,169)"/>
<path d="M0 0 C2.475 0.495 2.475 0.495 5 1 C5 1.66 5 2.32 5 3 C5.99 3.33 6.98 3.66 8 4 C8.66 4.66 9.32 5.32 10 6 C5.96825194 5.72510809 4.43105369 5.46508424 1.625 2.4375 C0.820625 1.2309375 0.820625 1.2309375 0 0 Z " fill="#8D3441" transform="translate(147,166)"/>
<path d="M0 0 C3.3 0 6.6 0 10 0 C10 0.66 10 1.32 10 2 C6.6875 2.6875 6.6875 2.6875 3 3 C2.01 2.01 1.02 1.02 0 0 Z " fill="#862022" transform="translate(56,185)"/>
<path d="M0 0 C0.66 0.66 1.32 1.32 2 2 C-0.57784846 4.64752004 -2.91648098 6.94432065 -6 9 C-6 6 -6 6 -3.5625 3.375 C-2.716875 2.59125 -1.87125 1.8075 -1 1 C-0.67 0.67 -0.34 0.34 0 0 Z " fill="#F8E0D6" transform="translate(180,171)"/>
<path d="M0 0 C0.66 0.33 1.32 0.66 2 1 C0.90931332 4.77545388 0.0916909 7.47043472 -3 10 C-3 8.02 -3 6.04 -3 4 C-2.34 3.67 -1.68 3.34 -1 3 C-0.67 2.01 -0.34 1.02 0 0 Z " fill="#862E2F" transform="translate(98,149)"/>
<path d="M0 0 C1.32 0 2.64 0 4 0 C4 0.99 4 1.98 4 3 C5.32 3.33 6.64 3.66 8 4 C7.34 4.66 6.68 5.32 6 6 C4.02 5.01 2.04 4.02 0 3 C0 2.01 0 1.02 0 0 Z " fill="#882C33" transform="translate(98,44)"/>
<path d="M0 0 C2.97 0 5.94 0 9 0 C9.33 0.66 9.66 1.32 10 2 C9.34 2.66 8.68 3.32 8 4 C5.36 3.01 2.72 2.02 0 1 C0 0.67 0 0.34 0 0 Z " fill="#974144" transform="translate(166,127)"/>
<path d="M0 0 C2.97 0.99 5.94 1.98 9 3 C8.67 3.66 8.34 4.32 8 5 C6.68 5 5.36 5 4 5 C4 4.34 4 3.68 4 3 C2.68 2.67 1.36 2.34 0 2 C0 1.34 0 0.68 0 0 Z " fill="#912F31" transform="translate(44,179)"/>
<path d="M0 0 C0.66 1.32 1.32 2.64 2 4 C1.67 4.33 1.34 4.66 1 5 C0.76924918 6.34747084 0.58846937 7.70377565 0.4375 9.0625 C0.293125 10.361875 0.14875 11.66125 0 13 C-0.33 13 -0.66 13 -1 13 C-1.02696365 11.20841511 -1.04637917 9.41671527 -1.0625 7.625 C-1.07410156 6.62726563 -1.08570313 5.62953125 -1.09765625 4.6015625 C-1 2 -1 2 0 0 Z " fill="#F9E4E3" transform="translate(133,141)"/>
<path d="M0 0 C3.875 4.75 3.875 4.75 5 7 C2.03 6.505 2.03 6.505 -1 6 C-0.67 4.02 -0.34 2.04 0 0 Z " fill="#F6DFD9" transform="translate(49,85)"/>
<path d="M0 0 C-1.125 1.5 -1.125 1.5 -3 3 C-6.1875 3.1875 -6.1875 3.1875 -9 3 C-5.92807025 0.26939578 -4.09590633 -0.34132553 0 0 Z " fill="#863036" transform="translate(66,61)"/>
</svg>
