<svg width="205" height="63" viewBox="0 0 205 63" fill="none" xmlns="http://www.w3.org/2000/svg">
<path d="M61.3319 0.5H0.5V62.2731H61.3319V0.5Z" fill="white" stroke="white" stroke-miterlimit="10"/>
<path d="M59.526 2.39062H2.26562V60.5364H59.526V2.39062Z" fill="#992221"/>
<path d="M11.9661 40.7369C12.4921 41.3096 13.0561 41.9204 13.6955 42.5312C14.3346 43.1421 15.0488 43.6766 15.8385 44.1729C16.6279 44.6693 17.5303 45.0511 18.5079 45.3182C19.4852 45.6235 20.5755 45.7767 21.7409 45.7767C24.1473 45.7767 26.027 45.204 27.343 44.1348C28.6963 43.0276 29.3733 41.5386 29.3733 39.6679C29.3733 37.6444 28.6215 36.1175 27.08 35.0867C25.5385 34.0555 23.3579 33.2539 20.5006 32.6049C18.9215 32.2615 17.5303 31.8033 16.2521 31.2307C14.9739 30.658 13.8833 29.8945 12.9436 29.0163C12.0036 28.1378 11.2894 27.1073 10.8003 25.962C10.2742 24.8166 10.0485 23.4805 10.0485 21.9915C10.0485 20.6169 10.3118 19.319 10.8003 18.0973C11.3267 16.8757 12.0785 15.8067 13.0939 14.8903C14.0712 13.9739 15.3494 13.2105 16.8536 12.6757C18.3576 12.1415 20.1245 11.8359 22.1548 11.8359C23.9221 11.8359 25.4633 12.0267 26.7793 12.4086C28.0575 12.7902 29.1857 13.2484 30.0878 13.821C30.99 14.3937 31.7045 14.9663 32.2684 15.539C32.8324 16.1117 33.246 16.6083 33.5093 16.9899L30.0124 20.2732C29.7869 20.0058 29.4484 19.6624 29.0351 19.2424C28.5836 18.8223 28.0575 18.4023 27.3809 17.9823C26.7042 17.5623 25.9148 17.2188 25.05 16.9514C24.1475 16.684 23.1324 16.5314 21.9669 16.5314C20.8015 16.5314 19.7863 16.684 18.9591 16.9896C18.1318 17.2952 17.4176 17.7149 16.8912 18.2115C16.3651 18.7076 15.9515 19.2805 15.6882 19.8911C15.4249 20.5022 15.3121 21.1511 15.3121 21.762C15.3121 22.6783 15.5 23.4799 15.8761 24.1292C16.2521 24.7782 16.816 25.3508 17.5303 25.8472C18.2445 26.3432 19.147 26.7633 20.2373 27.107C21.3273 27.4507 22.5306 27.7944 23.9218 28.1381C25.2751 28.4815 26.5909 28.9016 27.8694 29.4358C29.1475 29.9703 30.3133 30.6959 31.3284 31.6122C32.3436 32.5283 33.1708 33.6358 33.7721 34.9334C34.3736 36.2317 34.6742 37.8352 34.6742 39.7061C34.6742 41.3096 34.336 42.7605 33.6966 44.0966C33.0575 45.4327 32.1551 46.578 30.9897 47.5707C29.8618 48.5634 28.5085 49.2887 26.9294 49.8235C25.3503 50.3577 23.6585 50.6251 21.8536 50.6251C20.1618 50.6251 18.5827 50.4343 17.1915 50.0143C15.8006 49.5943 14.5224 49.0979 13.3946 48.4489C12.2667 47.8381 11.2515 47.1128 10.3867 46.3872C9.52158 45.6235 8.84519 44.8982 8.28125 44.1345L11.9661 40.7369Z" fill="white"/>
<path d="M42.6409 29.4364V15.3485H37.0391V11.8359H52.153V15.3485H46.5887V29.3982H42.6409V29.4364Z" fill="white"/>
<path d="M44.7916 50.3597C43.7016 50.3597 42.724 50.1689 41.8213 49.787C40.9192 49.4054 40.0919 48.8328 39.415 48.1453C38.7383 47.42 38.1744 46.6181 37.7983 45.6639C37.4223 44.7094 37.2344 43.7167 37.2344 42.6095C37.2344 41.5024 37.4223 40.4715 37.7983 39.5551C38.1744 38.6009 38.7004 37.799 39.3774 37.0737C40.0543 36.3484 40.8813 35.8139 41.7837 35.432C42.7237 35.0502 43.7013 34.8594 44.7916 34.8594C45.8819 34.8594 46.8595 35.0502 47.7619 35.432C48.6643 35.8139 49.4913 36.3866 50.1682 37.0737C50.8452 37.799 51.4091 38.6009 51.7849 39.5551C52.161 40.5097 52.3488 41.5024 52.3488 42.6095C52.3488 43.7164 52.161 44.7091 51.7849 45.6639C51.4091 46.6181 50.8828 47.42 50.1682 48.1453C49.4913 48.8706 48.6643 49.4054 47.7619 49.787C46.8971 50.1689 45.8819 50.3597 44.7916 50.3597ZM44.7916 47.2292C45.6564 47.2292 46.3707 47 47.0101 46.58C47.6116 46.16 48.1001 45.5873 48.4388 44.862C48.777 44.1367 48.9273 43.3733 48.9273 42.5332C48.9273 41.6931 48.777 40.9297 48.4388 40.2044C48.1004 39.517 47.6492 38.9443 47.0101 38.5246C46.4085 38.1045 45.6564 37.8756 44.7916 37.8756C43.9268 37.8756 43.2125 38.1045 42.5734 38.5246C41.9716 38.9446 41.4831 39.5173 41.1447 40.2044C40.8062 40.8918 40.6559 41.6931 40.6559 42.5332C40.6559 43.3733 40.8062 44.1367 41.1447 44.862C41.4828 45.5873 41.9716 46.1221 42.5734 46.58C43.2125 47 43.9643 47.2292 44.7916 47.2292Z" fill="white"/>
<path d="M69.8281 24.424L72.1593 21.8663C72.5727 22.3245 73.1366 22.7824 73.8133 23.2024C74.5275 23.6606 75.3172 23.8514 76.2569 23.8514C76.633 23.8514 76.9712 23.7751 77.3472 23.6606C77.6854 23.508 77.9863 23.3172 78.2121 23.0498C78.4378 22.7824 78.5502 22.4771 78.5502 22.0952C78.5502 21.4844 78.2496 21.0262 77.6854 20.6825C77.1215 20.3391 76.1818 20.0335 74.9409 19.6901C73.7378 19.3846 72.7224 18.8501 71.8957 18.0482C71.106 17.2847 70.6924 16.2539 70.6924 15.0319C70.6924 14.1159 70.9181 13.2758 71.3318 12.5124C71.783 11.7489 72.4218 11.1378 73.2866 10.6796C74.1517 10.2214 75.2418 9.99219 76.5575 9.99219C77.6478 9.99219 78.5502 10.1451 79.3024 10.4122C80.0542 10.6796 80.6557 11.0233 81.1069 11.3667C81.5584 11.7102 81.859 11.9776 82.0469 12.2068L79.9414 14.5356C79.6033 14.2682 79.1142 13.9629 78.5502 13.5811C77.9863 13.2376 77.2721 13.0469 76.5199 13.0469C75.9936 13.0469 75.5424 13.1995 75.0912 13.505C74.64 13.8106 74.4142 14.154 74.4142 14.574C74.4142 15.1467 74.7148 15.5667 75.2791 15.9102C75.843 16.2539 76.6327 16.5213 77.6478 16.7502C78.4375 16.9413 79.1893 17.2466 79.9036 17.6284C80.6178 18.0103 81.2193 18.583 81.7084 19.2704C82.1596 19.9575 82.4227 20.8739 82.4227 22.0192C82.4227 23.0119 82.1593 23.8517 81.5954 24.6154C81.0315 25.3789 80.3172 25.9897 79.3769 26.4097C78.4372 26.8679 77.4218 27.059 76.2563 27.059C75.2036 27.059 74.2636 26.9445 73.4369 26.6771C72.6097 26.4097 71.8954 26.0663 71.2936 25.6463C70.7681 25.302 70.2418 24.8822 69.8281 24.424Z" fill="white"/>
<path d="M88.6257 26.7084V13.6514H83.4375V10.4062H97.4611V13.6517H92.2729V26.7087L88.6257 26.7084Z" fill="white"/>
<path d="M106.22 27.126C105.017 27.126 103.927 26.897 102.911 26.477C101.896 26.057 101.032 25.4459 100.242 24.6443C99.4902 23.8808 98.8887 22.9645 98.475 21.8954C98.0614 20.8646 97.8359 19.7193 97.8359 18.5358C97.8359 17.3139 98.0614 16.1686 98.475 15.1377C98.8887 14.1069 99.4902 13.1908 100.242 12.427C100.994 11.6636 101.896 11.0528 102.911 10.5946C103.927 10.1745 105.017 9.94531 106.22 9.94531C107.423 9.94531 108.513 10.1745 109.529 10.5946C110.544 11.0146 111.408 11.6254 112.198 12.427C112.95 13.1908 113.551 14.1069 113.965 15.1377C114.379 16.1686 114.604 17.3139 114.604 18.5358C114.604 19.7574 114.379 20.8646 113.965 21.8954C113.551 22.9263 112.95 23.8424 112.198 24.6443C111.446 25.4077 110.544 26.0185 109.529 26.477C108.514 26.897 107.386 27.126 106.22 27.126ZM106.22 23.6519C107.16 23.6519 107.987 23.4226 108.664 22.9266C109.341 22.4684 109.867 21.8194 110.243 21.0557C110.619 20.2919 110.769 19.414 110.769 18.4976C110.769 17.5816 110.581 16.7033 110.243 15.9399C109.867 15.1761 109.378 14.5653 108.664 14.069C107.987 13.6108 107.16 13.3816 106.22 13.3816C105.28 13.3816 104.453 13.6108 103.776 14.069C103.1 14.5272 102.573 15.138 102.197 15.9399C101.821 16.7033 101.633 17.5816 101.633 18.4976C101.633 19.414 101.821 20.2922 102.197 21.0557C102.573 21.8191 103.1 22.4684 103.776 22.9266C104.453 23.4226 105.28 23.6519 106.22 23.6519Z" fill="white"/>
<path d="M129.079 21.4078L131.561 23.6985C131.11 24.3096 130.546 24.8822 129.832 25.4164C129.117 25.9509 128.365 26.371 127.5 26.6765C126.636 26.9821 125.696 27.1347 124.718 27.1347C123.101 27.1347 121.673 26.7528 120.432 26.0276C119.191 25.3023 118.214 24.2714 117.537 23.0116C116.823 21.7515 116.484 20.2628 116.484 18.6208C116.484 17.3992 116.672 16.292 117.086 15.223C117.5 14.1537 118.063 13.2376 118.778 12.4742C119.492 11.7105 120.394 11.0996 121.409 10.6415C122.425 10.1833 123.553 9.99219 124.793 9.99219C126.259 9.99219 127.576 10.2596 128.703 10.8322C129.831 11.4049 130.771 12.1686 131.486 13.2376L129.004 15.6431C128.516 14.9556 127.951 14.4211 127.313 14.0011C126.636 13.5811 125.884 13.3903 124.944 13.3903C123.966 13.3903 123.139 13.6195 122.463 14.0777C121.786 14.5359 121.222 15.1467 120.846 15.9486C120.47 16.7121 120.282 17.5903 120.282 18.5448C120.282 19.499 120.47 20.3773 120.846 21.141C121.222 21.9044 121.748 22.5153 122.463 22.9735C123.139 23.4316 123.966 23.6609 124.906 23.6609C125.658 23.6609 126.335 23.5464 126.823 23.3556C127.35 23.1264 127.763 22.8596 128.139 22.5537C128.403 22.1331 128.741 21.7897 129.079 21.4078Z" fill="white"/>
<path d="M133.445 26.7084V10.4062H137.092V16.8966L142.468 10.4062H146.679L141.152 16.744L147.393 26.6706H142.995L138.709 19.5694L137.054 21.4403V26.7087L133.445 26.7084Z" fill="white"/>
<path d="M152.727 26.7084V13.6514H147.539V10.4062H161.563V13.6517H156.374V26.7087L152.727 26.7084Z" fill="white"/>
<path d="M159.648 26.7084L165.626 10.4062H169.649L175.514 26.7084H171.529L170.288 22.9669H164.649L163.408 26.7084H159.648ZM165.514 20.1036H169.461L167.506 13.957L165.514 20.1036Z" fill="white"/>
<path d="M177.242 26.7084V10.4062H180.889V16.8966L186.265 10.4062H190.476L184.949 16.744L191.19 26.6706H186.792L182.506 19.5694L180.851 21.4403V26.7087L177.242 26.7084Z" fill="white"/>
<path d="M192.992 26.7084V10.4062H203.971V13.6136H196.639V16.7824H202.354V19.9128H196.639V23.4251H204.497V26.6706H192.992V26.7084Z" fill="white"/>
<path d="M78.1733 52.5322C76.9703 52.5322 75.8799 52.3033 74.8648 51.8833C73.8497 51.4632 72.9851 50.8521 72.1954 50.0505C71.4436 49.2871 70.8421 48.3707 70.4284 47.3017C70.0148 46.2708 69.7891 45.1255 69.7891 43.942C69.7891 42.7201 70.0148 41.5748 70.4284 40.544C70.8421 39.5131 71.4436 38.597 72.1954 37.8333C72.9475 37.0698 73.8497 36.459 74.8648 36.0008C75.8799 35.5808 76.9703 35.3516 78.1733 35.3516C79.3766 35.3516 80.4666 35.5808 81.482 36.0008C82.4969 36.4209 83.3617 37.0317 84.1511 37.8333C84.9408 38.6352 85.5048 39.5131 85.9181 40.544C86.332 41.5748 86.5575 42.7201 86.5575 43.942C86.5575 45.1637 86.332 46.2708 85.9181 47.3017C85.5048 48.3325 84.9032 49.2486 84.1511 50.0505C83.3993 50.8521 82.4969 51.4248 81.482 51.8833C80.4666 52.3033 79.3766 52.5322 78.1733 52.5322ZM78.1733 49.0581C79.1133 49.0581 79.9405 48.8289 80.6169 48.3328C81.2939 47.8746 81.8202 47.2257 82.196 46.4619C82.5721 45.6985 82.7224 44.8203 82.7224 43.9039C82.7224 42.9878 82.5345 42.1096 82.196 41.3461C81.8202 40.5824 81.3312 39.9716 80.6169 39.4752C79.9403 39.0171 79.1133 38.7878 78.1733 38.7878C77.2336 38.7878 76.4063 39.0171 75.7296 39.4752C75.053 39.9334 74.5266 40.5442 74.1506 41.3461C73.7745 42.1096 73.5866 42.9878 73.5866 43.9039C73.5866 44.8203 73.7745 45.6985 74.1506 46.4619C74.5266 47.2254 75.0527 47.8746 75.7296 48.3328C76.4063 48.8289 77.2336 49.0581 78.1733 49.0581Z" fill="white"/>
<path d="M89.0469 52.1147V35.8125H92.5059L99.4614 46.3881V35.8125H103.033V52.1147H99.7247L92.619 41.3486V52.1147H89.0469Z" fill="white"/>
<path d="M106.148 52.1147V35.8125H109.795V48.8314H117.465V52.1147H106.148Z" fill="white"/>
<path d="M119.609 52.1147V35.8125H123.256V52.1147H119.609Z" fill="white"/>
<path d="M126.375 52.1147V35.8125H129.834L136.789 46.3881V35.8125H140.361V52.1147H137.053L129.947 41.3486V52.1147H126.375Z" fill="white"/>
<path d="M143.523 52.1147V35.8125H154.502V39.0198H147.17V42.1887H152.885V45.3191H147.17V48.8314H155.028V52.0768H143.523V52.1147Z" fill="white"/>
</svg>
