<svg width="325" height="100" viewBox="0 0 325 100" fill="none" xmlns="http://www.w3.org/2000/svg">
<path d="M97.0706 0.5H0.5V98.5647H97.0706V0.5Z" fill="white" stroke="white" stroke-miterlimit="10"/>
<path d="M94.2055 3.5H3.30469V95.8063H94.2055V3.5Z" fill="#992221"/>
<path d="M18.7012 64.3803C19.5364 65.2894 20.4316 66.2591 21.4466 67.2288C22.4612 68.1984 23.595 69.047 24.8487 69.8349C26.1018 70.6229 27.5344 71.2291 29.0863 71.6531C30.6377 72.1377 32.3686 72.3809 34.2188 72.3809C38.0388 72.3809 41.0229 71.4718 43.1121 69.7743C45.2605 68.0167 46.3352 65.6529 46.3352 62.6833C46.3352 59.4709 45.1416 57.047 42.6945 55.4105C40.2474 53.7736 36.7857 52.501 32.2497 51.4708C29.7429 50.9256 27.5344 50.1982 25.5053 49.2891C23.4762 48.38 21.7449 47.168 20.2531 45.7739C18.7609 44.3792 17.627 42.7432 16.8506 40.925C16.0154 39.1068 15.6571 36.9858 15.6571 34.6219C15.6571 32.4398 16.0751 30.3793 16.8506 28.44C17.6862 26.5006 18.8797 24.8036 20.4917 23.3488C22.0431 21.8941 24.0723 20.6821 26.4602 19.8331C28.8477 18.9851 31.6528 18.5 34.8758 18.5C37.6814 18.5 40.128 18.8029 42.2173 19.4091C44.2464 20.0149 46.0373 20.7422 47.4695 21.6513C48.9016 22.5604 50.0359 23.4695 50.9312 24.3786C51.8264 25.2877 52.4831 26.0761 52.9011 26.6819L47.3497 31.8942C46.9918 31.4697 46.4545 30.9245 45.7983 30.2577C45.0815 29.5909 44.2464 28.9241 43.1722 28.2573C42.098 27.5905 40.8448 27.0453 39.4719 26.6209C38.0393 26.1964 36.4277 25.9541 34.5776 25.9541C32.7274 25.9541 31.1159 26.1964 29.8026 26.6814C28.4893 27.1665 27.3555 27.8328 26.5199 28.6212C25.6847 29.4087 25.0281 30.3183 24.61 31.2875C24.192 32.2576 24.0131 33.2879 24.0131 34.2576C24.0131 35.7123 24.3113 36.9849 24.9083 38.0156C25.5053 39.0458 26.4005 39.9549 27.5344 40.7429C28.6683 41.5303 30.1009 42.1971 31.8317 42.7428C33.5621 43.2884 35.4724 43.8341 37.6809 44.3797C39.8293 44.9249 41.9181 45.5917 43.9477 46.4397C45.9768 47.2883 47.8274 48.4401 49.4389 49.8949C51.0505 51.3492 52.3638 53.1072 53.3182 55.1673C54.2731 57.2282 54.7504 59.7738 54.7504 62.7439C54.7504 65.2894 54.2135 67.5927 53.1985 69.7138C52.1839 71.8348 50.7513 73.653 48.9012 75.2289C47.1107 76.8048 44.9622 77.9562 42.4554 78.8052C39.9486 79.6533 37.2629 80.0778 34.3977 80.0778C31.712 80.0778 29.2052 79.7749 26.9966 79.1081C24.7886 78.4413 22.7594 77.6533 20.9689 76.6231C19.1784 75.6534 17.5669 74.502 16.194 73.3502C14.8206 72.1377 13.7468 70.9863 12.8516 69.7739L18.7012 64.3803Z" fill="white"/>
<path d="M67.3929 46.4407V24.0762H58.5V18.5H82.4933V24.0762H73.6601V46.3801H67.3929V46.4407Z" fill="white"/>
<path d="M70.8096 79.6536C69.0792 79.6536 67.5273 79.3507 66.0943 78.7445C64.6621 78.1387 63.3489 77.2296 62.2742 76.1383C61.2 74.9869 60.3047 73.7139 59.7078 72.1991C59.1108 70.6837 58.8125 69.1078 58.8125 67.3502C58.8125 65.5926 59.1108 63.9561 59.7078 62.5014C60.3047 60.9865 61.1399 59.7135 62.2145 58.5621C63.2892 57.4107 64.602 56.5622 66.0346 55.956C67.5269 55.3498 69.0787 55.0469 70.8096 55.0469C72.5404 55.0469 74.0923 55.3498 75.5249 55.956C76.9575 56.5622 78.2703 57.4713 79.345 58.5621C80.4197 59.7135 81.3149 60.9865 81.9114 62.5014C82.5084 64.0167 82.8067 65.5926 82.8067 67.3502C82.8067 69.1074 82.5084 70.6833 81.9114 72.1991C81.3149 73.7139 80.4793 74.9869 79.345 76.1383C78.2703 77.2897 76.9575 78.1387 75.5249 78.7445C74.152 79.3507 72.5404 79.6536 70.8096 79.6536ZM70.8096 74.684C72.1825 74.684 73.3164 74.3201 74.3314 73.6533C75.2863 72.9865 76.0618 72.0774 76.5996 70.926C77.1365 69.7746 77.3751 68.5627 77.3751 67.2291C77.3751 65.8955 77.1365 64.6835 76.5996 63.5321C76.0623 62.4408 75.346 61.5317 74.3314 60.8654C73.3765 60.1986 72.1825 59.8351 70.8096 59.8351C69.4367 59.8351 68.3028 60.1986 67.2882 60.8654C66.3329 61.5322 65.5574 62.4413 65.0201 63.5321C64.4827 64.6234 64.2441 65.8955 64.2441 67.2291C64.2441 68.5627 64.4827 69.7746 65.0201 70.926C65.5569 72.0774 66.3329 72.9264 67.2882 73.6533C68.3028 74.3201 69.4963 74.684 70.8096 74.684Z" fill="white"/>
<path d="M110.562 38.4809L114.263 34.4204C114.919 35.1478 115.815 35.8747 116.889 36.5415C118.023 37.2689 119.276 37.5718 120.768 37.5718C121.365 37.5718 121.902 37.4506 122.499 37.2689C123.036 37.0266 123.514 36.7237 123.872 36.2992C124.23 35.8747 124.409 35.3901 124.409 34.7839C124.409 33.8142 123.932 33.0869 123.036 32.5412C122.141 31.996 120.649 31.511 118.679 30.9658C116.769 30.4807 115.157 29.6322 113.845 28.3592C112.591 27.1472 111.935 25.5107 111.935 23.5709C111.935 22.1166 112.293 20.7831 112.95 19.5711C113.666 18.3591 114.68 17.389 116.053 16.6616C117.426 15.9342 119.157 15.5703 121.245 15.5703C122.976 15.5703 124.409 15.8131 125.603 16.2371C126.796 16.6616 127.751 17.2072 128.468 17.7524C129.184 18.2976 129.662 18.7221 129.96 19.086L126.617 22.783C126.081 22.3585 125.304 21.8739 124.409 21.2677C123.514 20.7225 122.38 20.4196 121.186 20.4196C120.35 20.4196 119.634 20.6619 118.918 21.147C118.201 21.632 117.843 22.1772 117.843 22.844C117.843 23.7531 118.32 24.4199 119.216 24.9651C120.111 25.5107 121.365 25.9352 122.976 26.2987C124.23 26.602 125.423 27.0866 126.557 27.6928C127.691 28.2991 128.646 29.2082 129.422 30.2994C130.139 31.3903 130.556 32.845 130.556 34.6632C130.556 36.2391 130.138 37.5722 129.243 38.7847C128.348 39.9966 127.214 40.9663 125.721 41.6331C124.229 42.3605 122.617 42.6638 120.767 42.6638C119.096 42.6638 117.604 42.4821 116.291 42.0576C114.978 41.6331 113.844 41.0879 112.889 40.4211C112.055 39.8746 111.219 39.2082 110.562 38.4809Z" fill="white"/>
<path d="M140.4 42.1063V21.3783H132.164V16.2266H154.427V21.3787H146.19V42.1067L140.4 42.1063Z" fill="white"/>
<path d="M168.333 42.7743C166.423 42.7743 164.693 42.4109 163.081 41.7441C161.469 41.0773 160.097 40.1071 158.844 38.8346C157.65 37.6226 156.695 36.1679 156.038 34.4708C155.381 32.8344 155.023 31.0162 155.023 29.1374C155.023 27.1976 155.381 25.3794 156.038 23.7429C156.695 22.1064 157.65 20.6522 158.844 19.4397C160.037 18.2278 161.469 17.2581 163.081 16.5307C164.693 15.8639 166.423 15.5 168.333 15.5C170.243 15.5 171.974 15.8639 173.586 16.5307C175.197 17.1975 176.57 18.1672 177.823 19.4397C179.017 20.6522 179.972 22.1064 180.628 23.7429C181.285 25.3794 181.643 27.1976 181.643 29.1374C181.643 31.0767 181.285 32.8344 180.628 34.4708C179.972 36.1073 179.017 37.5616 177.823 38.8346C176.629 40.0466 175.197 41.0162 173.586 41.7441C171.974 42.4109 170.184 42.7743 168.333 42.7743ZM168.333 37.2592C169.825 37.2592 171.138 36.8952 172.213 36.1078C173.287 35.3804 174.122 34.3501 174.719 33.1377C175.316 31.9253 175.555 30.5315 175.555 29.0768C175.555 27.6225 175.256 26.2284 174.719 25.0164C174.122 23.8039 173.346 22.8343 172.213 22.0463C171.138 21.319 169.825 20.955 168.333 20.955C166.841 20.955 165.528 21.319 164.454 22.0463C163.379 22.7737 162.544 23.7434 161.947 25.0164C161.35 26.2284 161.052 27.6225 161.052 29.0768C161.052 30.5315 161.35 31.9257 161.947 33.1377C162.544 34.3497 163.379 35.3804 164.454 36.1078C165.528 36.8952 166.841 37.2592 168.333 37.2592Z" fill="white"/>
<path d="M204.62 33.6926L208.559 37.329C207.843 38.2991 206.948 39.2082 205.814 40.0563C204.68 40.9048 203.486 41.5716 202.113 42.0567C200.74 42.5418 199.248 42.7841 197.696 42.7841C195.129 42.7841 192.862 42.1778 190.892 41.0264C188.922 39.875 187.37 38.2386 186.296 36.2386C185.162 34.2383 184.625 31.8749 184.625 29.2683C184.625 27.3289 184.923 25.5713 185.58 23.8743C186.237 22.1768 187.132 20.7225 188.266 19.5105C189.4 18.2981 190.832 17.3284 192.443 16.601C194.055 15.8736 195.846 15.5703 197.815 15.5703C200.143 15.5703 202.232 15.9948 204.023 16.9039C205.813 17.813 207.305 19.0254 208.439 20.7225L204.5 24.5411C203.724 23.4498 202.829 22.6013 201.815 21.9345C200.74 21.2677 199.546 20.9648 198.054 20.9648C196.502 20.9648 195.19 21.3287 194.115 22.0561C193.041 22.7834 192.145 23.7531 191.548 25.0261C190.952 26.2381 190.653 27.6323 190.653 29.1476C190.653 30.6624 190.952 32.0566 191.548 33.269C192.145 34.481 192.981 35.4507 194.115 36.1781C195.19 36.9054 196.502 37.2693 197.995 37.2693C199.188 37.2693 200.263 37.0876 201.038 36.7847C201.874 36.4208 202.53 35.9972 203.127 35.5117C203.545 34.844 204.082 34.2988 204.62 33.6926Z" fill="white"/>
<path d="M211.547 42.1063V16.2266H217.336V26.53L225.871 16.2266H232.556L223.782 26.2877L233.69 42.0461H226.707L219.902 30.773L217.276 33.7431V42.1067L211.547 42.1063Z" fill="white"/>
<path d="M242.166 42.1063V21.3783H233.93V16.2266H256.192V21.3787H247.955V42.1067L242.166 42.1063Z" fill="white"/>
<path d="M253.148 42.1063L262.638 16.2266H269.024L278.336 42.1063H272.009L270.039 36.1666H261.086L259.117 42.1063H253.148ZM262.459 31.6211H268.727L265.623 21.8633L262.459 31.6211Z" fill="white"/>
<path d="M281.078 42.1063V16.2266H286.867V26.53L295.402 16.2266H302.087L293.313 26.2877L303.221 42.0461H296.238L289.434 30.773L286.808 33.7431V42.1067L281.078 42.1063Z" fill="white"/>
<path d="M306.086 42.1063V16.2266H323.514V21.3182H311.875V26.3487H320.948V31.3182H311.875V36.894H324.35V42.0461H306.086V42.1063Z" fill="white"/>
<path d="M123.81 83.1103C121.9 83.1103 120.169 82.7468 118.558 82.08C116.946 81.4132 115.574 80.4431 114.32 79.1705C113.127 77.9585 112.172 76.5038 111.515 74.8068C110.858 73.1703 110.5 71.3521 110.5 69.4733C110.5 67.5335 110.858 65.7153 111.515 64.0789C112.172 62.4424 113.127 60.9881 114.32 59.7757C115.514 58.5637 116.946 57.594 118.558 56.8666C120.169 56.1999 121.9 55.8359 123.81 55.8359C125.72 55.8359 127.451 56.1999 129.063 56.8666C130.674 57.5334 132.047 58.5031 133.3 59.7757C134.553 61.0487 135.449 62.4424 136.105 64.0789C136.762 65.7153 137.12 67.5335 137.12 69.4733C137.12 71.4127 136.762 73.1703 136.105 74.8068C135.449 76.4432 134.494 77.8975 133.3 79.1705C132.106 80.4431 130.674 81.3522 129.063 82.08C127.451 82.7468 125.72 83.1103 123.81 83.1103ZM123.81 77.5951C125.302 77.5951 126.615 77.2312 127.689 76.4437C128.764 75.7163 129.599 74.6861 130.196 73.4736C130.793 72.2617 131.032 70.8675 131.032 69.4127C131.032 67.9585 130.733 66.5643 130.196 65.3523C129.599 64.1399 128.823 63.1702 127.689 62.3823C126.615 61.6549 125.302 61.291 123.81 61.291C122.318 61.291 121.005 61.6549 119.931 62.3823C118.856 63.1096 118.021 64.0793 117.424 65.3523C116.827 66.5643 116.529 67.9585 116.529 69.4127C116.529 70.8675 116.827 72.2617 117.424 73.4736C118.021 74.6856 118.856 75.7163 119.931 76.4437C121.005 77.2312 122.318 77.5951 123.81 77.5951Z" fill="white"/>
<path d="M141.062 82.4422V56.5625H146.554L157.596 73.3512V56.5625H163.266V82.4422H158.014L146.733 65.3511V82.4422H141.062Z" fill="white"/>
<path d="M168.219 82.4422V56.5625H174.008V77.2299H186.183V82.4422H168.219Z" fill="white"/>
<path d="M189.586 82.4422V56.5625H195.375V82.4422H189.586Z" fill="white"/>
<path d="M200.328 82.4422V56.5625H205.819L216.861 73.3512V56.5625H222.531V82.4422H217.279L205.998 65.3511V82.4422H200.328Z" fill="white"/>
<path d="M227.547 82.4422V56.5625H244.975V61.6541H233.336V66.6846H242.409V71.6542H233.336V77.2299H245.811V82.3821H227.547V82.4422Z" fill="white"/>
</svg>
